<svg width="48" height="49" viewBox="0 0 48 49" fill="none" xmlns="http://www.w3.org/2000/svg">
<path d="M22.2136 8.73035H8.41509C7.36949 8.73035 6.36672 9.14571 5.62737 9.88506C4.88802 10.6244 4.47266 11.6272 4.47266 12.6728V40.2698C4.47266 41.3154 4.88802 42.3182 5.62737 43.0575C6.36672 43.7969 7.36949 44.2122 8.41509 44.2122H36.0121C37.0577 44.2122 38.0605 43.7969 38.7998 43.0575C39.5392 42.3182 39.9545 41.3154 39.9545 40.2698V26.4713" stroke="white" stroke-width="2" stroke-linecap="round" stroke-linejoin="round"/>
<path d="M36.9976 5.77346C37.7818 4.98926 38.8454 4.54871 39.9544 4.54871C41.0634 4.54871 42.127 4.98926 42.9112 5.77346C43.6954 6.55766 44.136 7.62126 44.136 8.73029C44.136 9.83931 43.6954 10.9029 42.9112 11.6871L24.1847 30.4137L16.2998 32.3849L18.271 24.5L36.9976 5.77346Z" stroke="white" stroke-width="2" stroke-linecap="round" stroke-linejoin="round"/>
</svg>
