<svg width="50" height="50" viewBox="0 0 50 50" fill="none" xmlns="http://www.w3.org/2000/svg">
<path d="M28.8034 4.64087H12.5857C11.5104 4.64087 10.4791 5.06803 9.71876 5.82838C8.95841 6.58874 8.53125 7.62 8.53125 8.6953V41.1307C8.53125 42.206 8.95841 43.2373 9.71876 43.9976C10.4791 44.758 11.5104 45.1852 12.5857 45.1852H36.9122C37.9875 45.1852 39.0188 44.758 39.7792 43.9976C40.5395 43.2373 40.9667 42.206 40.9667 41.1307V16.8042L28.8034 4.64087Z" stroke="white" stroke-width="2" stroke-linecap="round" stroke-linejoin="round"/>
<path d="M28.8035 4.64087V16.8042H40.9667" stroke="white" stroke-width="2" stroke-linecap="round" stroke-linejoin="round"/>
<path d="M32.8578 26.9402H16.6401" stroke="white" stroke-width="2" stroke-linecap="round" stroke-linejoin="round"/>
<path d="M32.8578 35.0491H16.6401" stroke="white" stroke-width="2" stroke-linecap="round" stroke-linejoin="round"/>
<path d="M20.6946 18.8313H18.6674H16.6401" stroke="white" stroke-width="2" stroke-linecap="round" stroke-linejoin="round"/>
</svg>
