<svg width="50" height="50" viewBox="0 0 50 50" fill="none" xmlns="http://www.w3.org/2000/svg">
<path d="M25.0541 30.9321C28.4129 30.9321 31.1357 28.2092 31.1357 24.8504C31.1357 21.4916 28.4129 18.7688 25.0541 18.7688C21.6953 18.7688 18.9724 21.4916 18.9724 24.8504C18.9724 28.2092 21.6953 30.9321 25.0541 30.9321Z" stroke="white" stroke-width="2" stroke-linecap="round" stroke-linejoin="round"/>
<path d="M40.0554 30.9321C39.7855 31.5436 39.705 32.2218 39.8243 32.8795C39.9435 33.5371 40.257 34.1439 40.7244 34.6217L40.846 34.7433C41.223 35.1198 41.522 35.567 41.726 36.0592C41.9301 36.5514 42.0351 37.079 42.0351 37.6118C42.0351 38.1446 41.9301 38.6722 41.726 39.1644C41.522 39.6566 41.223 40.1038 40.846 40.4803C40.4694 40.8573 40.0223 41.1563 39.5301 41.3604C39.0379 41.5644 38.5103 41.6694 37.9775 41.6694C37.4447 41.6694 36.9171 41.5644 36.4249 41.3604C35.9327 41.1563 35.4855 40.8573 35.109 40.4803L34.9873 40.3587C34.5096 39.8913 33.9027 39.5778 33.2451 39.4586C32.5875 39.3394 31.9092 39.4199 31.2978 39.6897C30.6982 39.9467 30.1869 40.3734 29.8267 40.9173C29.4665 41.4611 29.2732 42.0985 29.2706 42.7508V43.0954C29.2706 44.1707 28.8434 45.202 28.0831 45.9623C27.3227 46.7227 26.2915 47.1499 25.2162 47.1499C24.1409 47.1499 23.1096 46.7227 22.3493 45.9623C21.5889 45.202 21.1617 44.1707 21.1617 43.0954V42.913C21.146 42.242 20.9289 41.5912 20.5384 41.0453C20.1479 40.4994 19.6023 40.0836 18.9723 39.8519C18.3609 39.582 17.6826 39.5015 17.025 39.6208C16.3674 39.74 15.7606 40.0535 15.2828 40.5209L15.1612 40.6425C14.7846 41.0195 14.3375 41.3185 13.8453 41.5225C13.3531 41.7266 12.8255 41.8316 12.2927 41.8316C11.7599 41.8316 11.2323 41.7266 10.7401 41.5225C10.2479 41.3185 9.80072 41.0195 9.42417 40.6425C9.04721 40.2659 8.74816 39.8188 8.54412 39.3266C8.34008 38.8344 8.23506 38.3068 8.23506 37.774C8.23506 37.2412 8.34008 36.7136 8.54412 36.2214C8.74816 35.7292 9.04721 35.282 9.42417 34.9055L9.5458 34.7838C10.0132 34.3061 10.3267 33.6993 10.4459 33.0416C10.5651 32.384 10.4846 31.7058 10.2148 31.0943C9.95781 30.4947 9.53112 29.9834 8.98724 29.6232C8.44336 29.263 7.80602 29.0697 7.15369 29.0671H6.80907C5.73377 29.0671 4.70251 28.6399 3.94215 27.8796C3.1818 27.1192 2.75464 26.088 2.75464 25.0127C2.75464 23.9374 3.1818 22.9061 3.94215 22.1458C4.70251 21.3854 5.73377 20.9582 6.80907 20.9582H6.99152C7.66251 20.9426 8.31327 20.7254 8.85919 20.3349C9.4051 19.9444 9.82093 19.3988 10.0526 18.7689C10.3225 18.1574 10.403 17.4792 10.2837 16.8215C10.1645 16.1639 9.85098 15.5571 9.38363 15.0793L9.262 14.9577C8.88503 14.5811 8.58598 14.134 8.38194 13.6418C8.17791 13.1496 8.07289 12.622 8.07289 12.0892C8.07289 11.5564 8.17791 11.0288 8.38194 10.5366C8.58598 10.0444 8.88503 9.59723 9.262 9.22068C9.63854 8.84371 10.0857 8.54466 10.5779 8.34063C11.0701 8.13659 11.5977 8.03157 12.1305 8.03157C12.6633 8.03157 13.1909 8.13659 13.6831 8.34063C14.1753 8.54466 14.6225 8.84371 14.999 9.22068L15.1206 9.34231C15.5984 9.80966 16.2052 10.1232 16.8629 10.2424C17.5205 10.3616 18.1987 10.2811 18.8102 10.0113H18.9723C19.5719 9.75432 20.0833 9.32763 20.4435 8.78375C20.8037 8.23986 20.997 7.60253 20.9996 6.9502V6.60558C20.9996 5.53027 21.4267 4.49901 22.1871 3.73866C22.9474 2.97831 23.9787 2.55115 25.054 2.55115C26.1293 2.55115 27.1606 2.97831 27.9209 3.73866C28.6813 4.49901 29.1084 5.53027 29.1084 6.60558V6.78802C29.111 7.44035 29.3043 8.07769 29.6645 8.62157C30.0247 9.16545 30.536 9.59214 31.1356 9.84912C31.7471 10.119 32.4253 10.1995 33.083 10.0802C33.7406 9.96099 34.3474 9.64748 34.8252 9.18014L34.9468 9.0585C35.3233 8.68154 35.7705 8.38249 36.2627 8.17845C36.7549 7.97441 37.2825 7.86939 37.8153 7.86939C38.3481 7.86939 38.8757 7.97441 39.3679 8.17845C39.8601 8.38249 40.3073 8.68154 40.6838 9.0585C41.0608 9.43505 41.3598 9.88221 41.5639 10.3744C41.7679 10.8666 41.8729 11.3942 41.8729 11.927C41.8729 12.4598 41.7679 12.9874 41.5639 13.4796C41.3598 13.9718 41.0608 14.419 40.6838 14.7955L40.5622 14.9172C40.0948 15.3949 39.7813 16.0017 39.6621 16.6594C39.5428 17.317 39.6233 17.9952 39.8932 18.6067V18.7689C40.1502 19.3684 40.5769 19.8798 41.1207 20.24C41.6646 20.6002 42.302 20.7935 42.9543 20.7961H43.2989C44.3742 20.7961 45.4055 21.2232 46.1658 21.9836C46.9262 22.7439 47.3533 23.7752 47.3533 24.8505C47.3533 25.9258 46.9262 26.9571 46.1658 27.7174C45.4055 28.4778 44.3742 28.9049 43.2989 28.9049H43.1165C42.4641 28.9075 41.8268 29.1008 41.2829 29.461C40.739 29.8212 40.3123 30.3326 40.0554 30.9321Z" stroke="white" stroke-width="2" stroke-linecap="round" stroke-linejoin="round"/>
</svg>
